<svg width="87" height="80" viewBox="0 0 87 80" fill="none" xmlns="http://www.w3.org/2000/svg">
<rect width="87" height="80" fill="#007BFC"/>
<g clip-path="url(#clip0_0_1)">
<path d="M49.25 21.25C49.2504 22.6359 48.7901 23.9826 47.9415 25.0783C47.093 26.174 45.9044 26.9567 44.5625 27.3031V43.2C47.2594 43.4594 49.25 44.3781 49.25 45.4687C49.25 46.7625 46.4531 47.8125 43 47.8125C39.5469 47.8125 36.75 46.7625 36.75 45.4687C36.75 44.375 38.7406 43.4594 41.4375 43.2V27.3031C40.3057 27.0109 39.2786 26.4072 38.4727 25.5604C37.6669 24.7137 37.1146 23.658 36.8787 22.5132C36.6427 21.3684 36.7325 20.1803 37.1379 19.084C37.5433 17.9876 38.248 17.0269 39.172 16.311C40.096 15.5951 41.2023 15.1527 42.3651 15.0339C43.528 14.9152 44.7008 15.1249 45.7504 15.6393C46.8001 16.1537 47.6844 16.9522 48.303 17.9439C48.9216 18.9357 49.2497 20.0811 49.25 21.25Z" fill="white"/>
<path d="M18 45.2031V50.5687C18.0003 51.1489 18.1621 51.7176 18.4674 52.211C18.7726 52.7044 19.2091 53.1032 19.7281 53.3625L40.2062 63.6031C41.0737 64.0366 42.0302 64.2623 43 64.2623C43.9698 64.2623 44.9263 64.0366 45.7938 63.6031L66.2719 53.3625C66.7909 53.1032 67.2274 52.7044 67.5326 52.211C67.8379 51.7176 67.9997 51.1489 68 50.5687V45.2031C68 44.8906 67.8125 44.6094 67.525 44.4844L47.6875 35.9844V39.0875L64.0219 45.8937C64.0925 45.9235 64.1528 45.9733 64.1953 46.037C64.2378 46.1007 64.2606 46.1755 64.261 46.2521C64.2613 46.3287 64.2391 46.4037 64.1972 46.4678C64.1552 46.5318 64.0953 46.5822 64.025 46.6125L45.4625 54.5687C44.6844 54.9023 43.8466 55.0743 43 55.0743C42.1534 55.0743 41.3156 54.9023 40.5375 54.5687L21.975 46.6125C21.9047 46.5822 21.8448 46.5318 21.8028 46.4678C21.7609 46.4037 21.7387 46.3287 21.739 46.2521C21.7394 46.1755 21.7622 46.1007 21.8047 46.037C21.8472 45.9733 21.9075 45.9235 21.9781 45.8937L38.3125 39.0875L38.2719 36L18.475 44.4844C18.3341 44.5444 18.2139 44.6446 18.1295 44.7724C18.045 44.9001 18 45.0499 18 45.2031Z" fill="white"/>
</g>
<defs>
<clipPath id="clip0_0_1">
<rect width="50" height="50" fill="white" transform="translate(18 15)"/>
</clipPath>
</defs>
</svg>
