<svg width="263" height="50" viewBox="0 0 263 50" fill="none" xmlns="http://www.w3.org/2000/svg">
<g clip-path="url(#clip0_0_1)">
<path d="M31.25 6.25C31.2504 7.63587 30.7901 8.98255 29.9415 10.0783C29.093 11.174 27.9044 11.9567 26.5625 12.3031V28.2C29.2594 28.4594 31.25 29.3781 31.25 30.4687C31.25 31.7625 28.4531 32.8125 25 32.8125C21.5469 32.8125 18.75 31.7625 18.75 30.4687C18.75 29.375 20.7406 28.4594 23.4375 28.2V12.3031C22.3057 12.0109 21.2786 11.4072 20.4727 10.5604C19.6669 9.71374 19.1146 8.65802 18.8787 7.51319C18.6427 6.36836 18.7325 5.1803 19.1379 4.08396C19.5433 2.98762 20.248 2.02693 21.172 1.31102C22.096 0.595102 23.2023 0.152651 24.3651 0.0339177C25.528 -0.0848159 26.7008 0.124927 27.7504 0.639324C28.8001 1.15372 29.6844 1.95215 30.303 2.94394C30.9216 3.93572 31.2497 5.08111 31.25 6.25Z" fill="black"/>
<path d="M4.72812e-10 30.2031V35.5687C0.00030984 36.1489 0.162135 36.7176 0.467351 37.211C0.772567 37.7044 1.20912 38.1032 1.72812 38.3625L22.2062 48.6031C23.0737 49.0366 24.0302 49.2623 25 49.2623C25.9698 49.2623 26.9263 49.0366 27.7938 48.6031L48.2719 38.3625C48.7909 38.1032 49.2274 37.7044 49.5326 37.211C49.8379 36.7176 49.9997 36.1489 50 35.5687V30.2031C50 29.8906 49.8125 29.6094 49.525 29.4844L29.6875 20.9844V24.0875L46.0219 30.8937C46.0925 30.9235 46.1528 30.9733 46.1953 31.037C46.2378 31.1007 46.2606 31.1755 46.261 31.2521C46.2613 31.3287 46.2391 31.4037 46.1972 31.4678C46.1552 31.5318 46.0953 31.5822 46.025 31.6125L27.4625 39.5687C26.6844 39.9023 25.8466 40.0743 25 40.0743C24.1534 40.0743 23.3156 39.9023 22.5375 39.5687L3.975 31.6125C3.90466 31.5822 3.8448 31.5318 3.80284 31.4678C3.76088 31.4037 3.73869 31.3287 3.73902 31.2521C3.73936 31.1755 3.7622 31.1007 3.80471 31.037C3.84722 30.9733 3.90753 30.9235 3.97813 30.8937L20.3125 24.0875L20.2719 21L0.475 29.4844C0.334083 29.5444 0.213926 29.6446 0.129472 29.7724C0.0450185 29.9001 -5.32748e-06 30.0499 4.72812e-10 30.2031Z" fill="black"/>
</g>
<path d="M69.7699 38V17.6364H77.804C79.3485 17.6364 80.6643 17.9313 81.7514 18.5213C82.8385 19.1046 83.6671 19.9167 84.2372 20.9574C84.8139 21.9915 85.1023 23.1847 85.1023 24.5369C85.1023 25.8892 84.8106 27.0824 84.2273 28.1165C83.6439 29.1506 82.7988 29.956 81.6918 30.5327C80.5914 31.1094 79.259 31.3977 77.6946 31.3977H72.5739V27.9474H76.9986C77.8272 27.9474 78.5099 27.8049 79.0469 27.5199C79.5904 27.2282 79.9948 26.8272 80.2599 26.3168C80.5317 25.7997 80.6676 25.2064 80.6676 24.5369C80.6676 23.8608 80.5317 23.2708 80.2599 22.767C79.9948 22.2566 79.5904 21.8622 79.0469 21.5838C78.5033 21.2988 77.8139 21.1562 76.9787 21.1562H74.0753V38H69.7699ZM87.8192 38V22.7273H91.9258V25.392H92.0849C92.3633 24.4441 92.8306 23.7282 93.4869 23.2443C94.1431 22.7538 94.8988 22.5085 95.7539 22.5085C95.966 22.5085 96.1947 22.5218 96.44 22.5483C96.6853 22.5748 96.9007 22.6113 97.0863 22.6577V26.4162C96.8874 26.3565 96.6123 26.3035 96.261 26.2571C95.9097 26.2107 95.5882 26.1875 95.2965 26.1875C94.6734 26.1875 94.1166 26.3234 93.6261 26.5952C93.1422 26.8603 92.7577 27.2315 92.4727 27.7088C92.1942 28.1861 92.055 28.7363 92.055 29.3594V38H87.8192ZM105.526 38.2983C103.955 38.2983 102.602 37.9801 101.469 37.3438C100.342 36.7008 99.4735 35.7926 98.8636 34.6193C98.2538 33.4394 97.9489 32.044 97.9489 30.4332C97.9489 28.8622 98.2538 27.4834 98.8636 26.2969C99.4735 25.1103 100.332 24.1856 101.439 23.5227C102.553 22.8598 103.858 22.5284 105.357 22.5284C106.364 22.5284 107.302 22.6908 108.17 23.0156C109.045 23.3338 109.808 23.8144 110.457 24.4574C111.114 25.1004 111.624 25.9091 111.989 26.8835C112.353 27.8513 112.536 28.9848 112.536 30.2841V31.4474H99.6392V28.8224H108.548C108.548 28.2126 108.416 27.6723 108.151 27.2017C107.885 26.7311 107.518 26.3632 107.047 26.098C106.583 25.8262 106.043 25.6903 105.426 25.6903C104.783 25.6903 104.213 25.8395 103.716 26.1378C103.225 26.4295 102.841 26.8239 102.562 27.321C102.284 27.8116 102.142 28.3584 102.135 28.9616V31.4574C102.135 32.2131 102.274 32.866 102.553 33.4162C102.838 33.9664 103.239 34.3906 103.756 34.6889C104.273 34.9872 104.886 35.1364 105.595 35.1364C106.066 35.1364 106.497 35.0701 106.888 34.9375C107.279 34.8049 107.614 34.6061 107.892 34.3409C108.17 34.0758 108.383 33.7509 108.528 33.3665L112.446 33.625C112.247 34.5663 111.839 35.3883 111.223 36.0909C110.613 36.7869 109.824 37.3305 108.857 37.7216C107.895 38.1061 106.785 38.2983 105.526 38.2983ZM120.928 38.2486C119.768 38.2486 118.717 37.9503 117.776 37.3537C116.841 36.7505 116.098 35.8655 115.548 34.6989C115.005 33.5256 114.733 32.0871 114.733 30.3835C114.733 28.6335 115.015 27.1785 115.578 26.0185C116.142 24.8518 116.891 23.9801 117.825 23.4034C118.767 22.8201 119.797 22.5284 120.918 22.5284C121.773 22.5284 122.485 22.6742 123.055 22.9659C123.632 23.2509 124.096 23.6089 124.447 24.0398C124.805 24.464 125.077 24.8816 125.263 25.2926H125.392V17.6364H129.618V38H125.442V35.554H125.263C125.064 35.9782 124.782 36.3991 124.418 36.8168C124.06 37.2277 123.592 37.5691 123.016 37.8409C122.446 38.1127 121.75 38.2486 120.928 38.2486ZM122.27 34.8778C122.953 34.8778 123.529 34.6922 124 34.321C124.477 33.9432 124.842 33.4162 125.094 32.7401C125.352 32.0639 125.482 31.2718 125.482 30.3636C125.482 29.4555 125.356 28.6667 125.104 27.9972C124.852 27.3277 124.487 26.8106 124.01 26.446C123.533 26.0814 122.953 25.8991 122.27 25.8991C121.574 25.8991 120.987 26.0881 120.51 26.4659C120.033 26.8437 119.671 27.3674 119.426 28.0369C119.181 28.7064 119.058 29.482 119.058 30.3636C119.058 31.2519 119.181 32.0374 119.426 32.7202C119.678 33.3963 120.039 33.9266 120.51 34.3111C120.987 34.6889 121.574 34.8778 122.27 34.8778ZM133.1 38V22.7273H137.336V38H133.1ZM135.228 20.7585C134.599 20.7585 134.058 20.5497 133.608 20.1321C133.163 19.7079 132.941 19.2008 132.941 18.6108C132.941 18.0275 133.163 17.527 133.608 17.1094C134.058 16.6851 134.599 16.473 135.228 16.473C135.858 16.473 136.395 16.6851 136.839 17.1094C137.29 17.527 137.515 18.0275 137.515 18.6108C137.515 19.2008 137.29 19.7079 136.839 20.1321C136.395 20.5497 135.858 20.7585 135.228 20.7585ZM147.63 38.2983C146.066 38.2983 144.72 37.9669 143.593 37.304C142.473 36.6345 141.611 35.7064 141.008 34.5199C140.411 33.3333 140.113 31.9678 140.113 30.4233C140.113 28.8589 140.415 27.4867 141.018 26.3068C141.628 25.1203 142.493 24.1955 143.613 23.5327C144.733 22.8632 146.066 22.5284 147.61 22.5284C148.942 22.5284 150.109 22.7704 151.11 23.2543C152.111 23.7382 152.903 24.4176 153.487 25.2926C154.07 26.1676 154.391 27.1951 154.451 28.375H150.454C150.341 27.6127 150.043 26.9995 149.559 26.5355C149.082 26.0649 148.455 25.8295 147.68 25.8295C147.023 25.8295 146.45 26.0085 145.96 26.3665C145.476 26.7178 145.098 27.2315 144.826 27.9077C144.554 28.5838 144.418 29.4025 144.418 30.3636C144.418 31.3381 144.551 32.1667 144.816 32.8494C145.088 33.5322 145.469 34.0526 145.96 34.4105C146.45 34.7685 147.023 34.9474 147.68 34.9474C148.164 34.9474 148.598 34.848 148.982 34.6491C149.373 34.4503 149.695 34.1619 149.947 33.7841C150.205 33.3996 150.374 32.9389 150.454 32.402H154.451C154.385 33.5687 154.067 34.5961 153.496 35.4844C152.933 36.366 152.154 37.0554 151.16 37.5526C150.165 38.0497 148.989 38.2983 147.63 38.2983ZM165.287 22.7273V25.9091H156.089V22.7273H165.287ZM158.177 19.0682H162.413V33.3068C162.413 33.6979 162.473 34.0028 162.592 34.2216C162.711 34.4337 162.877 34.5829 163.089 34.669C163.308 34.7552 163.56 34.7983 163.845 34.7983C164.044 34.7983 164.243 34.7817 164.441 34.7486C164.64 34.7088 164.793 34.679 164.899 34.6591L165.565 37.8111C165.353 37.8774 165.055 37.9536 164.67 38.0398C164.286 38.1326 163.818 38.1889 163.268 38.2088C162.247 38.2486 161.352 38.1127 160.583 37.8011C159.821 37.4896 159.228 37.0057 158.804 36.3494C158.379 35.6932 158.171 34.8646 158.177 33.8636V19.0682ZM168.046 38V22.7273H172.083V25.4219H172.262C172.58 24.527 173.11 23.821 173.853 23.304C174.595 22.7869 175.483 22.5284 176.517 22.5284C177.565 22.5284 178.456 22.7902 179.192 23.3139C179.928 23.831 180.418 24.5336 180.664 25.4219H180.823C181.134 24.5469 181.698 23.8475 182.513 23.3239C183.335 22.7936 184.306 22.5284 185.426 22.5284C186.852 22.5284 188.008 22.9825 188.897 23.8906C189.792 24.7921 190.239 26.0715 190.239 27.7287V38H186.013V28.5639C186.013 27.7154 185.788 27.0791 185.337 26.6548C184.886 26.2306 184.323 26.0185 183.647 26.0185C182.878 26.0185 182.278 26.2637 181.847 26.7543C181.416 27.2382 181.201 27.8778 181.201 28.6733V38H177.094V28.4744C177.094 27.7254 176.879 27.1288 176.448 26.6847C176.024 26.2405 175.463 26.0185 174.767 26.0185C174.297 26.0185 173.873 26.1378 173.495 26.3764C173.123 26.6084 172.828 26.9366 172.61 27.3608C172.391 27.7784 172.282 28.2689 172.282 28.8324V38H168.046ZM197.94 38.2884C196.966 38.2884 196.097 38.1193 195.335 37.7812C194.573 37.4366 193.969 36.9295 193.525 36.2599C193.088 35.5838 192.869 34.742 192.869 33.7344C192.869 32.8859 193.025 32.1733 193.336 31.5966C193.648 31.0199 194.072 30.5559 194.609 30.2045C195.146 29.8532 195.756 29.5881 196.439 29.4091C197.128 29.2301 197.85 29.1042 198.606 29.0312C199.494 28.9384 200.21 28.8523 200.754 28.7727C201.297 28.6866 201.692 28.5606 201.937 28.3949C202.182 28.2292 202.305 27.9839 202.305 27.6591V27.5994C202.305 26.9697 202.106 26.4825 201.708 26.1378C201.317 25.7931 200.761 25.6207 200.038 25.6207C199.276 25.6207 198.669 25.7898 198.218 26.1278C197.768 26.4593 197.469 26.8769 197.324 27.3807L193.406 27.0625C193.605 26.1345 193.996 25.3324 194.579 24.6562C195.163 23.9735 195.915 23.4498 196.836 23.0852C197.764 22.714 198.838 22.5284 200.058 22.5284C200.906 22.5284 201.718 22.6278 202.494 22.8267C203.276 23.0256 203.969 23.3338 204.572 23.7514C205.182 24.169 205.663 24.706 206.014 25.3622C206.365 26.0118 206.541 26.7907 206.541 27.6989V38H202.524V35.8821H202.404C202.159 36.3594 201.831 36.7803 201.42 37.1449C201.009 37.5028 200.515 37.7846 199.939 37.9901C199.362 38.1889 198.696 38.2884 197.94 38.2884ZM199.153 35.3651C199.776 35.3651 200.326 35.2424 200.804 34.9972C201.281 34.7453 201.655 34.4072 201.927 33.983C202.199 33.5587 202.335 33.0781 202.335 32.5412V30.9205C202.202 31.0066 202.02 31.0862 201.788 31.1591C201.563 31.2254 201.307 31.2884 201.022 31.348C200.737 31.401 200.452 31.4508 200.167 31.4972C199.882 31.5369 199.624 31.5734 199.392 31.6065C198.895 31.6795 198.46 31.7955 198.089 31.9545C197.718 32.1136 197.43 32.3291 197.224 32.6009C197.019 32.866 196.916 33.1974 196.916 33.5952C196.916 34.1719 197.125 34.6127 197.542 34.9176C197.967 35.2159 198.503 35.3651 199.153 35.3651ZM209.827 38V22.7273H213.934V25.392H214.093C214.371 24.4441 214.838 23.7282 215.495 23.2443C216.151 22.7538 216.907 22.5085 217.762 22.5085C217.974 22.5085 218.203 22.5218 218.448 22.5483C218.693 22.5748 218.908 22.6113 219.094 22.6577V26.4162C218.895 26.3565 218.62 26.3035 218.269 26.2571C217.917 26.2107 217.596 26.1875 217.304 26.1875C216.681 26.1875 216.124 26.3234 215.634 26.5952C215.15 26.8603 214.766 27.2315 214.48 27.7088C214.202 28.1861 214.063 28.7363 214.063 29.3594V38H209.827ZM225.122 33.6051L225.132 28.5241H225.749L230.641 22.7273H235.503L228.93 30.4034H227.926L225.122 33.6051ZM221.284 38V17.6364H225.52V38H221.284ZM230.83 38L226.335 31.348L229.159 28.3551L235.791 38H230.83ZM243.912 38.2983C242.341 38.2983 240.989 37.9801 239.855 37.3438C238.729 36.7008 237.86 35.7926 237.25 34.6193C236.641 33.4394 236.336 32.044 236.336 30.4332C236.336 28.8622 236.641 27.4834 237.25 26.2969C237.86 25.1103 238.719 24.1856 239.826 23.5227C240.939 22.8598 242.245 22.5284 243.743 22.5284C244.751 22.5284 245.689 22.6908 246.557 23.0156C247.432 23.3338 248.194 23.8144 248.844 24.4574C249.5 25.1004 250.011 25.9091 250.375 26.8835C250.74 27.8513 250.922 28.9848 250.922 30.2841V31.4474H238.026V28.8224H246.935C246.935 28.2126 246.802 27.6723 246.537 27.2017C246.272 26.7311 245.904 26.3632 245.434 26.098C244.97 25.8262 244.429 25.6903 243.813 25.6903C243.17 25.6903 242.6 25.8395 242.103 26.1378C241.612 26.4295 241.228 26.8239 240.949 27.321C240.671 27.8116 240.528 28.3584 240.522 28.9616V31.4574C240.522 32.2131 240.661 32.866 240.939 33.4162C241.224 33.9664 241.625 34.3906 242.142 34.6889C242.659 34.9872 243.273 35.1364 243.982 35.1364C244.453 35.1364 244.883 35.0701 245.275 34.9375C245.666 34.8049 246 34.6061 246.279 34.3409C246.557 34.0758 246.769 33.7509 246.915 33.3665L250.833 33.625C250.634 34.5663 250.226 35.3883 249.61 36.0909C249 36.7869 248.211 37.3305 247.243 37.7216C246.282 38.1061 245.172 38.2983 243.912 38.2983ZM261.81 22.7273V25.9091H252.613V22.7273H261.81ZM254.701 19.0682H258.936V33.3068C258.936 33.6979 258.996 34.0028 259.115 34.2216C259.235 34.4337 259.4 34.5829 259.613 34.669C259.831 34.7552 260.083 34.7983 260.368 34.7983C260.567 34.7983 260.766 34.7817 260.965 34.7486C261.164 34.7088 261.316 34.679 261.422 34.6591L262.088 37.8111C261.876 37.8774 261.578 37.9536 261.194 38.0398C260.809 38.1326 260.342 38.1889 259.792 38.2088C258.771 38.2486 257.876 38.1127 257.107 37.8011C256.345 37.4896 255.751 37.0057 255.327 36.3494C254.903 35.6932 254.694 34.8646 254.701 33.8636V19.0682Z" fill="black"/>
<defs>
<clipPath id="clip0_0_1">
<rect width="50" height="50" fill="white"/>
</clipPath>
</defs>
</svg>
